<?xml version="1.0" encoding="UTF-8"?>
<svg xmlns="http://www.w3.org/2000/svg" viewBox="0 0 920 560" width="920" height="560" font-family="-apple-system,Segoe UI,Roboto,sans-serif" font-size="13">
  <defs>
    <marker id="arr2" viewBox="0 0 10 10" refX="9" refY="5" markerWidth="7" markerHeight="7" orient="auto">
      <path d="M0,0 L10,5 L0,10 z" fill="#4b5563"/>
    </marker>
  </defs>

  <rect width="920" height="560" fill="#ffffff"/>

  <text x="460" y="28" text-anchor="middle" font-size="18" font-weight="700" fill="#1a1a1a">Extension Internals</text>

  <rect x="20" y="55" width="500" height="490" rx="10" fill="#f8fafc" stroke="#cbd5e1" stroke-dasharray="4,4"/>
  <text x="35" y="78" font-size="12" font-weight="700" fill="#475569">PAGE CONTEXT (injected into AI tool tab)</text>

  <rect x="40" y="95" width="200" height="55" rx="6" fill="#fef9c3" stroke="#eab308"/>
  <text x="140" y="115" text-anchor="middle" font-weight="700" fill="#713f12" font-size="12">content-script-loader.js</text>
  <text x="140" y="133" text-anchor="middle" fill="#854d0e" font-size="10">dynamic import() shim</text>

  <line x1="240" y1="122" x2="295" y2="122" stroke="#4b5563" marker-end="url(#arr2)"/>

  <rect x="295" y="95" width="205" height="55" rx="6" fill="#dbeafe" stroke="#4285f4"/>
  <text x="397" y="115" text-anchor="middle" font-weight="700" fill="#1e3a8a" font-size="12">content-script.js</text>
  <text x="397" y="133" text-anchor="middle" fill="#1e40af" font-size="10">paste listener · DOM observer</text>

  <rect x="40" y="170" width="460" height="155" rx="8" fill="#fff" stroke="#4285f4" stroke-width="1.5"/>
  <text x="270" y="190" text-anchor="middle" font-weight="700" fill="#1e3a8a">src/detection/</text>

  <rect x="60" y="205" width="195" height="50" rx="5" fill="#eff6ff" stroke="#60a5fa"/>
  <text x="157" y="222" text-anchor="middle" font-weight="700" fill="#1e3a8a" font-size="11">patterns.js</text>
  <text x="157" y="238" text-anchor="middle" fill="#1e40af" font-size="10">PHI · PII · Secrets · Financial</text>
  <text x="157" y="250" text-anchor="middle" fill="#1e40af" font-size="10">31+ regex patterns</text>

  <rect x="280" y="205" width="200" height="50" rx="5" fill="#eff6ff" stroke="#60a5fa"/>
  <text x="380" y="222" text-anchor="middle" font-weight="700" fill="#1e3a8a" font-size="11">engine.js</text>
  <text x="380" y="238" text-anchor="middle" fill="#1e40af" font-size="10">regexScan · applyRules</text>
  <text x="380" y="250" text-anchor="middle" fill="#1e40af" font-size="10">buildMasked · buildHighlighted</text>

  <rect x="60" y="265" width="195" height="50" rx="5" fill="#eff6ff" stroke="#60a5fa"/>
  <text x="157" y="282" text-anchor="middle" font-weight="700" fill="#1e3a8a" font-size="11">rules/engine.js</text>
  <text x="157" y="298" text-anchor="middle" fill="#1e40af" font-size="10">exact · regex · category</text>
  <text x="157" y="310" text-anchor="middle" fill="#1e40af" font-size="10">priority resolution</text>

  <rect x="280" y="265" width="200" height="50" rx="5" fill="#eff6ff" stroke="#60a5fa"/>
  <text x="380" y="282" text-anchor="middle" font-weight="700" fill="#1e3a8a" font-size="11">utils/tokenMap.js</text>
  <text x="380" y="298" text-anchor="middle" fill="#1e40af" font-size="10">session-stable mappings</text>
  <text x="380" y="310" text-anchor="middle" fill="#1e40af" font-size="10">deanonymizeResponse()</text>

  <rect x="40" y="345" width="460" height="115" rx="8" fill="#fff" stroke="#9333ea" stroke-width="1.5"/>
  <text x="270" y="365" text-anchor="middle" font-weight="700" fill="#581c87">src/modes/</text>

  <rect x="60" y="380" width="135" height="60" rx="5" fill="#f5f3ff" stroke="#a855f7"/>
  <text x="127" y="400" text-anchor="middle" font-weight="700" fill="#581c87" font-size="11">shadow.js</text>
  <text x="127" y="417" text-anchor="middle" fill="#6b21a8" font-size="10">log only</text>
  <text x="127" y="430" text-anchor="middle" fill="#6b21a8" font-size="10">no UI · no edit</text>

  <rect x="207" y="380" width="135" height="60" rx="5" fill="#f5f3ff" stroke="#a855f7"/>
  <text x="275" y="400" text-anchor="middle" font-weight="700" fill="#581c87" font-size="11">fix.js</text>
  <text x="275" y="417" text-anchor="middle" fill="#6b21a8" font-size="10">auto-replace text</text>
  <text x="275" y="430" text-anchor="middle" fill="#6b21a8" font-size="10">silent toast</text>

  <rect x="354" y="380" width="135" height="60" rx="5" fill="#f5f3ff" stroke="#a855f7"/>
  <text x="422" y="400" text-anchor="middle" font-weight="700" fill="#581c87" font-size="11">warn.js</text>
  <text x="422" y="417" text-anchor="middle" fill="#6b21a8" font-size="10">overlay modal</text>
  <text x="422" y="430" text-anchor="middle" fill="#6b21a8" font-size="10">user choice required</text>

  <rect x="40" y="480" width="460" height="50" rx="6" fill="#dcfce7" stroke="#22c55e"/>
  <text x="270" y="500" text-anchor="middle" font-weight="700" fill="#14532d" font-size="12">utils/audit.js</text>
  <text x="270" y="517" text-anchor="middle" fill="#15803d" font-size="10">logDetectionEvent · logMaskingEvent · logBlockedEvent → Supabase REST</text>

  <line x1="500" y1="55" x2="500" y2="545" stroke="#cbd5e1" stroke-dasharray="2,4"/>

  <rect x="540" y="55" width="360" height="240" rx="10" fill="#f8fafc" stroke="#cbd5e1" stroke-dasharray="4,4"/>
  <text x="555" y="78" font-size="12" font-weight="700" fill="#475569">SERVICE WORKER CONTEXT</text>

  <rect x="560" y="95" width="320" height="65" rx="6" fill="#dbeafe" stroke="#4285f4"/>
  <text x="720" y="115" text-anchor="middle" font-weight="700" fill="#1e3a8a">background.js</text>
  <text x="720" y="133" text-anchor="middle" fill="#1e40af" font-size="11">message router · state owner</text>
  <text x="720" y="148" text-anchor="middle" fill="#1e40af" font-size="11">chrome.runtime.onMessage handler</text>

  <rect x="560" y="175" width="155" height="55" rx="5" fill="#fff" stroke="#4285f4"/>
  <text x="637" y="195" text-anchor="middle" font-weight="600" fill="#1e3a8a" font-size="11">GET_STATE</text>
  <text x="637" y="212" text-anchor="middle" fill="#1e40af" font-size="10">SET_MODE</text>
  <text x="637" y="225" text-anchor="middle" fill="#1e40af" font-size="10">TOGGLE_PAUSE</text>

  <rect x="725" y="175" width="155" height="55" rx="5" fill="#fff" stroke="#4285f4"/>
  <text x="802" y="195" text-anchor="middle" font-weight="600" fill="#1e3a8a" font-size="11">LOG_EVENT</text>
  <text x="802" y="212" text-anchor="middle" fill="#1e40af" font-size="10">SYNC_RULES</text>
  <text x="802" y="225" text-anchor="middle" fill="#1e40af" font-size="10">FETCH_POLICY</text>

  <rect x="560" y="245" width="320" height="40" rx="5" fill="#dcfce7" stroke="#22c55e"/>
  <text x="720" y="269" text-anchor="middle" font-weight="600" fill="#166534" font-size="11">→ Supabase REST (anon key)</text>

  <rect x="540" y="310" width="360" height="240" rx="10" fill="#f8fafc" stroke="#cbd5e1" stroke-dasharray="4,4"/>
  <text x="555" y="333" font-size="12" font-weight="700" fill="#475569">POPUP CONTEXT</text>

  <rect x="560" y="350" width="320" height="65" rx="6" fill="#dbeafe" stroke="#4285f4"/>
  <text x="720" y="370" text-anchor="middle" font-weight="700" fill="#1e3a8a">popup/popup.{html,js,css}</text>
  <text x="720" y="388" text-anchor="middle" fill="#1e40af" font-size="11">mode picker · pause toggle · stats</text>

  <rect x="560" y="430" width="320" height="40" rx="5" fill="#fff" stroke="#94a3b8"/>
  <text x="720" y="453" text-anchor="middle" fill="#475569" font-size="11">chrome.runtime.sendMessage(...) ↔ background</text>

  <rect x="560" y="485" width="320" height="50" rx="5" fill="#fff" stroke="#94a3b8" stroke-dasharray="3,3"/>
  <text x="720" y="505" text-anchor="middle" font-weight="600" fill="#475569" font-size="12">chrome.storage.local</text>
  <text x="720" y="522" text-anchor="middle" fill="#64748b" font-size="10">mode · rules · sessionId · tokenMap</text>
</svg>
